<?xml version="1.0" encoding="UTF-8"?>
<svg id="Capa_2" xmlns="http://www.w3.org/2000/svg" viewBox="0 0 561.21 278.77">
  <defs>
    <style>
      .cls-1 {
        fill: #ef7f22;
      }

      .cls-2 {
        fill: #fff;
      }
    </style>
  </defs>
  <g id="Capa_1-2" data-name="Capa_1">
    <g>
      <polygon class="cls-2" points="263.56 5.51 263.56 278.73 212.64 278.73 212.64 95.7 198.72 114.6 161.03 165.75 119.43 222.18 77.74 278.73 0 278.77 41.68 222.18 83.29 165.75 120.97 114.6 164.58 55.41 205.43 0 259.49 0 263.56 5.51"/>
      <polygon class="cls-1" points="561.21 278.67 483.47 278.67 441.86 222.24 400.29 165.81 362.61 114.66 345.18 91.04 345.18 278.67 294.26 278.71 294.26 .06 355.89 .06 396.71 55.47 440.35 114.66 478.04 165.81 519.61 222.24 561.21 278.67"/>
    </g>
  </g>
</svg>