<?xml version="1.0" encoding="UTF-8"?>
<svg id="Capa_2" xmlns="http://www.w3.org/2000/svg" viewBox="0 0 1280.78 165.33">
  <g id="Capa_1-2" data-name="Capa_1">
    <g>
      <polygon points="151.3 4.74 151.3 161.59 122.07 161.59 122.07 56.52 114.08 67.36 92.45 96.73 68.56 129.13 44.63 161.59 0 161.61 23.93 129.13 47.81 96.73 69.45 67.36 94.48 33.39 117.93 1.58 148.97 1.58 151.3 4.74"/>
      <path d="M898.45,33.39v128.16h83.07v-17.15l-.22-.28c.07.07.15.11.22.17v-15.16h-53.83v-32.4h53.83v-29.36h-53.83v-33.98h53.83V1.58h-83.07v31.81Z"/>
      <polygon points="170.79 33.39 170.79 161.59 200.03 161.59 200.03 70.87 219.09 96.73 242.95 129.13 263.37 156.82 266.88 161.59 292.61 161.59 292.61 1.58 263.37 1.58 263.37 96.27 242.06 67.36 217.03 33.39 200.03 10.3 193.6 1.58 170.79 1.58 170.79 31.2 170.79 33.39"/>
      <path d="M560.5,161.56h-32.44l-23.91-32.44-23.89-32.4h-12.82v64.84h-29.23v-94.2h58.3c9.38,0,16.98-7.6,16.98-17s-7.6-16.98-16.98-16.98h-58.3V1.58h58.3c20.75,0,38.37,13.3,44.87,31.81,1.75,4.94,2.69,10.24,2.69,15.77,0,6.45-1.28,12.6-3.62,18.21-5.31,12.82-16.07,22.82-29.41,27.09l1.69,2.27,23.86,32.4,7.8,10.57,16.11,21.87Z"/>
      <polygon points="1280.78 161.52 1236.14 161.52 1212.26 129.13 1188.39 96.73 1166.76 67.36 1156.76 53.81 1156.76 161.52 1127.52 161.54 1127.52 1.58 1162.91 1.58 1186.34 33.39 1211.39 67.36 1233.03 96.73 1256.89 129.13 1280.78 161.52"/>
      <polygon points="807.02 64.66 830.06 33.39 851.76 3.94 853.51 1.58 880.99 1.58 880.99 161.54 851.76 161.54 851.76 129.13 851.76 125.36 851.76 63.96 849.25 67.36 829.15 94.65 827.61 96.73 806.82 124.95 786.03 96.73 784.71 94.93 764.4 67.36 759.27 60.39 759.27 161.56 730.03 161.56 730.03 1.58 760.55 1.58 784 33.39 807.02 64.66 807.02 64.66"/>
      <path d="M339.6,1.58h-29.23v31.81l36.66-.26c21.48,0,39.65,14.18,45.74,33.76,1.39,4.53,2.14,9.33,2.14,14.31,0,5.35-.87,10.5-2.49,15.31h-.15c-.02.06-.04.15-.07.22-6.04,18.06-22.61,31.27-42.42,32.4h-10.18v-32.61h-.04v-29.15h-29.19v94.18h28.91c3.49,0,10.89-.48,10.89-.48,23.21-2.14,43.55-14.21,56.71-31.94,6.99-9.42,11.98-20.42,14.29-32.4.95-4.94,1.45-10.03,1.45-15.22,0-4.83-.43-9.55-1.26-14.14-2.23-12.6-7.45-24.17-14.86-33.98-14.57-19.32-37.72-31.81-63.8-31.81h-3.12Z"/>
      <path d="M1030.03,2.68h-29.23v31.81l36.66-.26c21.48,0,39.65,14.18,45.74,33.76,1.39,4.53,2.14,9.33,2.14,14.31,0,5.35-.87,10.5-2.49,15.31h-.15c-.02.06-.04.15-.07.22-6.04,18.06-22.61,31.27-42.42,32.4h-10.18v-32.61h-.04v-29.15h-29.19v94.18h28.91c3.49,0,10.89-.48,10.89-.48,23.21-2.14,43.55-14.21,56.71-31.94,6.99-9.42,11.98-20.42,14.29-32.4.95-4.94,1.45-10.03,1.45-15.22,0-4.83-.43-9.55-1.26-14.14-2.23-12.6-7.45-24.17-14.86-33.98-14.57-19.32-37.72-31.81-63.8-31.81h-3.12Z"/>
      <path d="M718.19,82.66c0,45.65-37.01,82.66-82.66,82.66s-82.67-37.01-82.67-82.66c0-23.9,10.14-45.43,26.36-60.52l15.44,17.83c-11.24,10.76-18.23,25.91-18.23,42.69,0,10.52,2.75,20.41,7.57,28.97l32.17-30.91,16.25-34.68v52.66l-32.39,31.23c9.88,7.44,22.18,11.85,35.51,11.85s25.81-4.48,35.74-12.03l-32.2-31.05v-52.66l16.25,34.68,31.9,30.65c4.73-8.5,7.43-18.29,7.43-28.71,0-16.74-6.96-31.86-18.15-42.61l15.44-17.83c16.16,15.09,26.27,36.58,26.27,60.44Z"/>
      <path d="M687.34,18.24l-15.44,17.83c-10.03-7.84-22.66-12.52-36.37-12.52s-26.38,4.69-36.42,12.55l-15.44-17.83c14.18-11.43,32.22-18.28,51.86-18.28s37.64,6.83,51.81,18.24Z"/>
    </g>
  </g>
</svg>