<?xml version="1.0" encoding="UTF-8"?>
<svg id="Capa_2" xmlns="http://www.w3.org/2000/svg" xmlns:xlink="http://www.w3.org/1999/xlink" viewBox="0 0 1920 1080">
  <defs>
    <style>
      .cls-1 {
        fill: none;
      }

      .cls-2 {
        fill: url(#Motivo_nuevo);
      }
    </style>
    <pattern id="Motivo_nuevo" data-name="Motivo nuevo" x="0" y="0" width="494.33" height="613.85" patternTransform="translate(0 -1100)" patternUnits="userSpaceOnUse" viewBox="0 0 494.33 613.85">
      <g>
        <rect class="cls-1" width="494.33" height="613.85"/>
        <g>
          <line x1="442.82" y1="555.92" x2="442.46" y2="555.92"/>
          <polygon points="438.45 501.86 438.45 605.15 419.2 605.15 419.2 535.96 413.94 543.1 399.69 562.44 383.96 583.77 368.2 605.15 338.81 605.16 354.57 583.77 370.3 562.44 384.55 543.1 401.03 520.72 416.48 499.78 436.91 499.78 438.45 501.86"/>
          <polygon points="550.98 605.13 521.59 605.13 505.86 583.79 490.14 562.46 475.9 543.12 469.31 534.19 469.31 605.13 450.05 605.14 450.05 499.8 473.36 499.8 488.79 520.75 505.29 543.12 519.53 562.46 535.25 583.79 550.98 605.13"/>
          <line x1="462" y1="567.06" x2="462" y2="567.04"/>
        </g>
        <g>
          <line x1="195.66" y1="555.92" x2="195.29" y2="555.92"/>
          <polygon points="191.29 501.86 191.29 605.15 172.04 605.15 172.04 535.96 166.77 543.1 152.53 562.44 136.8 583.77 121.04 605.15 91.65 605.16 107.41 583.77 123.14 562.44 137.38 543.1 153.87 520.72 169.31 499.78 189.75 499.78 191.29 501.86"/>
          <polygon points="303.81 605.13 274.42 605.13 258.69 583.79 242.98 562.46 228.73 543.12 222.14 534.19 222.14 605.13 202.89 605.14 202.89 499.8 226.19 499.8 241.62 520.75 258.12 543.12 272.37 562.46 288.08 583.79 303.81 605.13"/>
          <line x1="214.83" y1="567.06" x2="214.83" y2="567.04"/>
        </g>
        <polygon points="56.65 605.13 27.26 605.13 11.53 583.79 -4.19 562.46 -18.43 543.12 -25.02 534.19 -25.02 605.13 -44.27 605.14 -44.27 499.8 -20.97 499.8 -5.54 520.75 10.96 543.12 25.2 562.46 40.92 583.79 56.65 605.13"/>
        <polygon points="586.75 379.09 586.75 482.38 567.5 482.38 567.5 413.18 562.24 420.33 547.99 439.67 532.26 461 516.5 482.38 487.11 482.39 502.87 461 518.6 439.67 532.85 420.33 549.33 397.95 564.77 377.01 585.21 377.01 586.75 379.09"/>
        <g>
          <line x1="343.95" y1="433.15" x2="343.59" y2="433.15"/>
          <polygon points="339.59 379.09 339.59 482.38 320.33 482.38 320.33 413.18 315.07 420.33 300.83 439.67 285.1 461 269.34 482.38 239.95 482.39 255.71 461 271.44 439.67 285.68 420.33 302.17 397.95 317.61 377.01 338.05 377.01 339.59 379.09"/>
          <polygon points="452.11 482.36 422.72 482.36 406.99 461.02 391.28 439.69 377.03 420.35 370.44 411.42 370.44 482.36 351.19 482.37 351.19 377.03 374.49 377.03 389.92 397.98 406.42 420.35 420.67 439.69 436.38 461.02 452.11 482.36"/>
          <line x1="363.13" y1="444.29" x2="363.13" y2="444.27"/>
        </g>
        <g>
          <line x1="96.79" y1="433.15" x2="96.43" y2="433.15"/>
          <polygon points="92.42 379.09 92.42 482.38 73.17 482.38 73.17 413.18 67.91 420.33 53.66 439.67 37.93 461 22.17 482.38 -7.22 482.39 8.54 461 24.27 439.67 38.52 420.33 55 397.95 70.45 377.01 90.88 377.01 92.42 379.09"/>
          <polygon points="204.95 482.36 175.56 482.36 159.83 461.02 144.11 439.69 129.87 420.35 123.28 411.42 123.28 482.36 104.03 482.37 104.03 377.03 127.33 377.03 142.76 397.98 159.26 420.35 173.5 439.69 189.22 461.02 204.95 482.36"/>
          <line x1="115.97" y1="444.29" x2="115.97" y2="444.27"/>
        </g>
        <g>
          <line x1="492.25" y1="310.38" x2="491.89" y2="310.38"/>
          <polygon points="487.88 256.32 487.88 359.61 468.63 359.61 468.63 290.41 463.37 297.56 449.12 316.9 433.39 338.23 417.64 359.61 388.25 359.62 404 338.23 419.73 316.9 433.98 297.56 450.46 275.18 465.91 254.23 486.34 254.23 487.88 256.32"/>
        </g>
        <g>
          <line x1="245.09" y1="310.38" x2="244.73" y2="310.38"/>
          <polygon points="240.72 256.32 240.72 359.61 221.47 359.61 221.47 290.41 216.21 297.56 201.96 316.9 186.23 338.23 170.47 359.61 141.08 359.62 156.84 338.23 172.57 316.9 186.82 297.56 203.3 275.18 218.75 254.23 239.18 254.23 240.72 256.32"/>
          <polygon points="353.25 359.58 323.85 359.58 308.13 338.25 292.41 316.92 278.16 297.58 271.58 288.65 271.58 359.58 252.32 359.6 252.32 254.26 275.63 254.26 291.06 275.2 307.55 297.58 321.8 316.92 337.52 338.25 353.25 359.58"/>
          <line x1="264.26" y1="321.52" x2="264.26" y2="321.5"/>
        </g>
        <g>
          <polygon points="106.08 359.58 76.69 359.58 60.96 338.25 45.25 316.92 31 297.58 24.41 288.65 24.41 359.58 5.16 359.6 5.16 254.26 28.46 254.26 43.89 275.2 60.39 297.58 74.64 316.92 90.35 338.25 106.08 359.58"/>
          <line x1="17.1" y1="321.52" x2="17.1" y2="321.5"/>
        </g>
        <g>
          <line x1="393.39" y1="187.61" x2="393.02" y2="187.61"/>
          <polygon points="389.02 133.55 389.02 236.83 369.77 236.83 369.77 167.64 364.51 174.79 350.26 194.12 334.53 215.46 318.77 236.83 289.38 236.85 305.14 215.46 320.87 194.12 335.11 174.79 351.6 152.41 367.04 131.46 387.48 131.46 389.02 133.55"/>
          <polygon points="501.54 236.81 472.15 236.81 456.42 215.48 440.71 194.15 426.46 174.81 419.87 165.88 419.87 236.81 400.62 236.83 400.62 131.48 423.92 131.48 439.35 152.43 455.85 174.81 470.1 194.15 485.81 215.48 501.54 236.81"/>
          <line x1="412.56" y1="198.75" x2="412.56" y2="198.73"/>
        </g>
        <g>
          <line x1="146.22" y1="187.61" x2="145.86" y2="187.61"/>
          <polygon points="141.86 133.55 141.86 236.83 122.6 236.83 122.6 167.64 117.34 174.79 103.09 194.12 87.37 215.46 71.61 236.83 42.22 236.85 57.97 215.46 73.7 194.12 87.95 174.79 104.44 152.41 119.88 131.46 140.31 131.46 141.86 133.55"/>
          <polygon points="254.38 236.81 224.99 236.81 209.26 215.48 193.54 194.15 179.3 174.81 172.71 165.88 172.71 236.81 153.46 236.83 153.46 131.48 176.76 131.48 192.19 152.43 208.69 174.81 222.94 194.15 238.65 215.48 254.38 236.81"/>
          <line x1="165.4" y1="198.75" x2="165.4" y2="198.73"/>
        </g>
        <polygon points="7.22 236.81 -22.17 236.81 -37.9 215.48 -53.62 194.15 -67.87 174.81 -74.45 165.88 -74.45 236.81 -93.71 236.83 -93.71 131.48 -70.4 131.48 -54.97 152.43 -38.47 174.81 -24.23 194.15 -8.51 215.48 7.22 236.81"/>
        <polygon points="537.32 10.77 537.32 114.06 518.07 114.06 518.07 44.87 512.8 52.02 498.56 71.35 482.83 92.69 467.07 114.06 437.68 114.08 453.44 92.69 469.17 71.35 483.41 52.02 499.9 29.64 515.34 8.69 535.78 8.69 537.32 10.77"/>
        <g>
          <line x1="294.52" y1="64.84" x2="294.16" y2="64.84"/>
          <polygon points="290.15 10.77 290.15 114.06 270.9 114.06 270.9 44.87 265.64 52.02 251.39 71.35 235.66 92.69 219.91 114.06 190.52 114.08 206.27 92.69 222 71.35 236.25 52.02 252.73 29.64 268.18 8.69 288.61 8.69 290.15 10.77"/>
          <polygon points="402.68 114.04 373.29 114.04 357.56 92.71 341.84 71.37 327.6 52.04 321.01 43.11 321.01 114.04 301.76 114.06 301.76 8.71 325.06 8.71 340.49 29.66 356.99 52.04 371.23 71.37 386.95 92.71 402.68 114.04"/>
          <line x1="313.7" y1="75.98" x2="313.7" y2="75.96"/>
        </g>
        <g>
          <line x1="47.36" y1="64.84" x2="47" y2="64.84"/>
          <polygon points="42.99 10.77 42.99 114.06 23.74 114.06 23.74 44.87 18.48 52.02 4.23 71.35 -11.5 92.69 -27.26 114.06 -56.65 114.08 -40.89 92.69 -25.16 71.35 -10.92 52.02 5.57 29.64 21.01 8.69 41.45 8.69 42.99 10.77"/>
          <polygon points="155.51 114.04 126.12 114.04 110.39 92.71 94.68 71.37 80.43 52.04 73.84 43.11 73.84 114.04 54.59 114.06 54.59 8.71 77.89 8.71 93.32 29.66 109.82 52.04 124.07 71.37 139.79 92.71 155.51 114.04"/>
          <line x1="66.53" y1="75.98" x2="66.53" y2="75.96"/>
        </g>
      </g>
    </pattern>
  </defs>
  <g id="Capa_1-2" data-name="Capa_1">
    <rect class="cls-2" width="1920" height="1080"/>
  </g>
</svg>