<?xml version="1.0" encoding="UTF-8"?>
<svg id="Capa_2" xmlns="http://www.w3.org/2000/svg" viewBox="0 0 636.08 636.07">
  <defs>
    <style>
      .cls-1 {
        fill: #ef7f22;
      }
    </style>
  </defs>
  <g id="Capa_1-2" data-name="Capa_1">
    <g>
      <path d="M636.08,318.04c0,175.65-142.39,318.04-318.04,318.04S0,493.68,0,318.04c0-91.95,39.01-174.78,101.4-232.85l59.39,68.6c-43.23,41.39-70.15,99.67-70.15,164.25,0,40.49,10.58,78.52,29.14,111.44l123.76-118.93,62.52-133.43v202.61l-124.61,120.14c38.03,28.62,85.34,45.58,136.6,45.58s99.31-17.23,137.49-46.27l-123.9-119.46v-202.61l62.51,133.43,122.73,117.93c18.2-32.7,28.57-70.36,28.57-110.44,0-64.41-26.78-122.57-69.82-163.93l59.4-68.6c62.18,58.06,101.05,140.75,101.05,232.53Z"/>
      <path class="cls-1" d="M517.46,70.19l-59.4,68.59c-38.59-30.18-87.17-48.15-139.94-48.15s-101.5,18.04-140.12,48.29l-59.39-68.6C173.18,26.34,242.58,0,318.13,0s144.8,26.29,199.34,70.19Z"/>
    </g>
  </g>
</svg>